<svg id="Layer_1" data-name="Layer 1" xmlns="http://www.w3.org/2000/svg" viewBox="0 0 88.05 69.07"><defs><style>.cls-1{fill:#8bd8bc;}</style></defs><path class="cls-1" d="M7.21,40.47a1.12,1.12,0,0,0,.56-.15L14,36.92V81.05a1.19,1.19,0,0,0,1.19,1.19H92.85a1.19,1.19,0,0,0,1.2-1.19V14.37a1.19,1.19,0,0,0-1.2-1.19H52.22l-45.59,25a1.15,1.15,0,0,0-.58.71,1.2,1.2,0,0,0,.8,1.49A1.12,1.12,0,0,0,7.21,40.47Zm64.4,39.37h-9V62.62h9ZM74,15.58H91.64V49.15H74Zm-20,0H71.61V49.15H54Zm0,36H91.64V79.84H74V61.47a1.2,1.2,0,0,0-1.18-1.21H61.41a1.19,1.19,0,0,0-1.19,1.19V79.84H54Zm-37.55-16L51.56,16.41V49.15H16.42Zm0,16H51.56V79.84H16.42Z" transform="translate(-6 -13.18)"/><path class="cls-1" d="M45.11,64.37H22.86a1.21,1.21,0,1,0-.25,2.41,1,1,0,0,0,.25,0H45.11a1.21,1.21,0,0,0,.26-2.41A1.13,1.13,0,0,0,45.11,64.37Z" transform="translate(-6 -13.18)"/><path class="cls-1" d="M45.12,57.2H22.86a1.21,1.21,0,1,0-.25,2.41H45.12a1.21,1.21,0,0,0,0-2.41Z" transform="translate(-6 -13.18)"/><path class="cls-1" d="M45.11,71.55H22.86A1.21,1.21,0,1,0,22.61,74a1,1,0,0,0,.25,0H45.11a1.21,1.21,0,0,0,.26-2.41Z" transform="translate(-6 -13.18)"/></svg>