<svg xmlns="http://www.w3.org/2000/svg" version="1.1" xmlns:xlink="http://www.w3.org/1999/xlink" xmlns:svgjs="http://svgjs.dev/svgjs" width="1000" height="189" viewBox="0 0 1000 189"><g transform="matrix(1,0,0,1,0.30515732223000214,0.349649162096199)"><svg viewBox="0 0 396 75" data-background-color="#ffffff" preserveAspectRatio="xMidYMid meet" height="189" width="1000" xmlns="http://www.w3.org/2000/svg" xmlns:xlink="http://www.w3.org/1999/xlink"><g id="tight-bounds" transform="matrix(1,0,0,1,0.2400000000000091,0.13046647920575083)"><svg viewBox="0 0 395.52 74.73906278202304" height="74.73906278202304" width="395.52"><g><svg viewBox="0 0 544.1766242844491 102.82982121486855" height="74.73906278202304" width="395.52"><g transform="matrix(1,0,0,1,148.6566242844491,14.211646781504996)"><svg viewBox="0 0 395.52 74.40652765185855" height="74.40652765185855" width="395.52"><g id="textblocktransform"><svg viewBox="0 0 395.52 74.40652765185855" height="74.40652765185855" width="395.52" id="textblock"><g><svg viewBox="0 0 395.52 74.40652765185855" height="74.40652765185855" width="395.52"><g transform="matrix(1,0,0,1,0,0)"><svg width="395.52" viewBox="3.1500000953674316 -40.95000076293945 220.5800018310547 41.5" height="74.40652765185855" data-palette-color="#233565"><path d="M10.5 0L3.15 0 3.15-40.5 10.5-40.5 10.5-23.55 18.75-23.55 18.75-40.5 26.15-40.5 26.15 0 18.75 0 18.75-18.3 10.5-18.3 10.5 0ZM43.35 0.55L43.35 0.55Q39.05 0.55 36.5-1.05 33.95-2.65 32.85-5.65 31.75-8.65 31.75-12.75L31.75-12.75 31.75-27.9Q31.75-32 32.85-34.93 33.95-37.85 36.5-39.4 39.05-40.95 43.35-40.95L43.35-40.95Q47.75-40.95 50.27-39.4 52.8-37.85 53.92-34.93 55.05-32 55.05-27.9L55.05-27.9 55.05-12.7Q55.05-8.65 53.92-5.68 52.8-2.7 50.27-1.07 47.75 0.55 43.35 0.55ZM43.35-4.9L43.35-4.9Q45.2-4.9 46.07-5.7 46.95-6.5 47.25-7.9 47.55-9.3 47.55-10.95L47.55-10.95 47.55-29.6Q47.55-31.3 47.25-32.65 46.95-34 46.07-34.77 45.2-35.55 43.35-35.55L43.35-35.55Q41.6-35.55 40.7-34.77 39.8-34 39.5-32.65 39.2-31.3 39.2-29.6L39.2-29.6 39.2-10.95Q39.2-9.3 39.47-7.9 39.75-6.5 40.65-5.7 41.55-4.9 43.35-4.9ZM65.95 0L60.4 0 61.1-40.5 68.75-40.5 74.5-12.45 80.5-40.5 87.9-40.5 88.65 0 83.15 0 82.55-28.15 76.8 0 72.35 0 66.5-28.25 65.95 0ZM111.44 0L94.34 0 94.34-40.5 111.34-40.5 111.34-35.3 101.74-35.3 101.74-23.65 109.29-23.65 109.29-18.5 101.74-18.5 101.74-5.1 111.44-5.1 111.44 0ZM125.94 0.55L125.94 0.55Q122.29 0.55 119.84-0.88 117.39-2.3 116.14-5.05 114.89-7.8 114.74-11.8L114.74-11.8 121.09-13.05Q121.19-10.7 121.67-8.9 122.14-7.1 123.12-6.13 124.09-5.15 125.69-5.15L125.69-5.15Q127.49-5.15 128.24-6.23 128.99-7.3 128.99-8.95L128.99-8.95Q128.99-11.6 127.79-13.3 126.59-15 124.59-16.7L124.59-16.7 119.49-21.2Q117.34-23.05 116.07-25.33 114.79-27.6 114.79-30.95L114.79-30.95Q114.79-35.75 117.59-38.35 120.39-40.95 125.24-40.95L125.24-40.95Q128.09-40.95 129.99-40.08 131.89-39.2 133.02-37.65 134.14-36.1 134.69-34.13 135.24-32.15 135.39-29.95L135.39-29.95 129.09-28.85Q128.99-30.75 128.67-32.25 128.34-33.75 127.52-34.6 126.69-35.45 125.09-35.45L125.09-35.45Q123.44-35.45 122.57-34.38 121.69-33.3 121.69-31.7L121.69-31.7Q121.69-29.65 122.54-28.33 123.39-27 124.99-25.6L124.99-25.6 130.04-21.15Q132.54-19.05 134.31-16.23 136.09-13.4 136.09-9.4L136.09-9.4Q136.09-6.5 134.81-4.25 133.54-2 131.27-0.73 128.99 0.55 125.94 0.55ZM151.89 0L144.49 0 144.49-35.05 138.04-35.05 138.04-40.5 158.24-40.5 158.24-35.05 151.89-35.05 151.89 0ZM165.84 0L158.89 0 166.99-40.5 174.89-40.5 182.99 0 176.14 0 174.54-9.35 167.49-9.35 165.84 0ZM170.99-31.05L168.24-14.05 173.74-14.05 170.99-31.05ZM196.58 0L189.18 0 189.18-35.05 182.73-35.05 182.73-40.5 202.93-40.5 202.93-35.05 196.58-35.05 196.58 0ZM223.73 0L206.63 0 206.63-40.5 223.63-40.5 223.63-35.3 214.03-35.3 214.03-23.65 221.58-23.65 221.58-18.5 214.03-18.5 214.03-5.1 223.73-5.1 223.73 0Z" opacity="1" transform="matrix(1,0,0,1,0,0)" fill="#233565" class="wordmark-text-0" data-fill-palette-color="primary" id="text-0"></path></svg></g></svg></g></svg></g></svg></g><g><svg viewBox="0 0 131.09102886250895 102.82982121486855" height="102.82982121486855" width="131.09102886250895"><g><svg xmlns="http://www.w3.org/2000/svg" data-name="Layer 1" viewBox="0.003298494266346097 6.900000095367432 63.996700286865234 50.19999694824219" x="0" y="0" height="102.82982121486855" width="131.09102886250895" class="icon-icon-0" data-fill-palette-color="accent" id="icon-0"><path d="M0.88 26.74a0.87 0.87 0 0 0 0.41-0.11l4.54-2.47V56.23a0.87 0.87 0 0 0 0.87 0.87H63.13a0.87 0.87 0 0 0 0.87-0.87V7.77a0.87 0.87 0 0 0-0.87-0.87H34l-0.13 0-0.08 0-0.12 0-0.07 0L0.46 25.1a0.84 0.84 0 0 0-0.42 0.52 0.87 0.87 0 0 0 0.84 1.12ZM47.69 55.35H41.15V42.84h6.54Zm1.74-46.7H62.25v24.4H49.43Zm-14.56 0H47.69v24.4H34.87Zm0 26.15H62.25V55.35H49.43V42a0.87 0.87 0 0 0-0.87-0.88H40.28a0.87 0.87 0 0 0-0.87 0.88V55.35H34.87ZM7.58 23.2L33.12 9.25v23.8H7.58Zm0 11.6H33.12V55.35H7.58Z" fill="#8bd8bc" data-fill-palette-color="accent"></path><path d="M28.43 44.11H12.26a0.88 0.88 0 1 0 0 1.75H28.43a0.88 0.88 0 1 0 0-1.75Z" fill="#8bd8bc" data-fill-palette-color="accent"></path><path d="M28.44 38.9H12.26a0.88 0.88 0 1 0 0 1.75H28.44a0.88 0.88 0 0 0 0-1.75Z" fill="#8bd8bc" data-fill-palette-color="accent"></path><path d="M28.43 49.33H12.26a0.88 0.88 0 1 0 0 1.75H28.43a0.88 0.88 0 1 0 0-1.75Z" fill="#8bd8bc" data-fill-palette-color="accent"></path></svg></g></svg></g></svg></g><defs></defs></svg><rect width="395.52" height="74.73906278202304" fill="none" stroke="none" visibility="hidden"></rect></g></svg></g></svg>